<svg width="17" height="17" viewBox="0 0 17 17" fill="none" xmlns="http://www.w3.org/2000/svg">
<path d="M16.1738 2.3125C16.5801 2.75 16.7988 3.25 16.7988 3.8125C16.7988 4.40625 16.5801 4.90625 16.1738 5.3125L6.33008 15.2188L1.67383 16C1.42383 16.0625 1.20508 15.9688 1.01758 15.7812C0.830078 15.5938 0.736328 15.375 0.798828 15.125L1.58008 10.4688L11.4863 0.625C11.8926 0.21875 12.3926 0 12.9863 0C13.5488 0 14.0488 0.21875 14.4863 0.625L16.1738 2.3125ZM4.58008 9.4375H5.86133V10.9375H7.36133V12.2188L12.6426 6.90625L9.89258 4.15625L4.58008 9.4375ZM3.36133 14.3125L5.67383 13.9375L6.23633 13.375V12.0625H4.73633V10.5625H3.42383L2.86133 11.125L2.48633 13.4375L3.36133 14.3125ZM15.2051 4.34375C15.3301 4.21875 15.4238 4.03125 15.4238 3.8125C15.4238 3.625 15.3301 3.4375 15.1738 3.28125L13.5176 1.59375C13.3613 1.46875 13.1738 1.375 12.9863 1.375C12.7676 1.375 12.5801 1.46875 12.4551 1.59375L10.9551 3.09375L13.7051 5.84375L15.2051 4.34375Z" fill="#B6B6B6"/>
</svg>
